<?xml version="1.0" encoding="UTF-8"?>
<svg id="Layer_2" data-name="Layer 2" xmlns="http://www.w3.org/2000/svg" viewBox="0 0 767.87 1219.48">
  <defs>
    <style>
      .cls-1 {
        fill: #231f20;
      }
    </style>
  </defs>
  <g id="Layer_1-2" data-name="Layer 1">
    <path class="cls-1" d="M530.16,35.1l-58.08,227.06h94.52l76.83,605.18,10.45,82.26c0,85.89-33.11,164.03-87.27,222.37-16.52,17.8-35.01,33.75-55.1,47.51H142.37c-20.09-13.75-38.57-29.7-55.1-47.51C33.11,1113.63,0,1035.49,0,949.6c0-18.72,1.58-37.08,4.61-54.95L87.27,262.16h51.96c-10.6-45.01,1.64-94.29,36.74-129.36l23.77-23.77,153.16,153.14h82.99l60.3-235.76c4.05-15.84,18.29-26.4,33.92-26.4,2.88,0,5.8.36,8.72,1.11h.02l229,58.57-8.68,33.99-229.03-58.57Z"/>
  </g>
</svg>